<svg xmlns="http://www.w3.org/2000/svg" xmlns:xlink="http://www.w3.org/1999/xlink" id="Layer_1" x="0px" y="0px" viewBox="0 0 239.5 92" style="enable-background:new 0 0 239.5 92;" xml:space="preserve"> <style type="text/css"> .st0{fill:#7AA2D5;} .st1{clip-path:url(#SVGID_2_);fill:#7AA2D5;} .st2{fill:#1B3768;} .st3{fill:#8B1D41;} .st4{clip-path:url(#SVGID_4_);fill:#8B1D41;} </style> <path class="st0" d="M98.3,0c-3.9,8.5-5.9,18.6-5.9,22.7c0,6.3,4,9.4,8.4,9.4s8-2.9,8-7.5C108.8,14.4,98.3,15.4,98.3,0 M100.4,31.2 c-4,0-6.5-3-6.5-7.4c0-1.3,0.3-3,0.7-4.3c0.1,7,4.7,11,7.7,11c0.3,0,0.6,0,0.9-0.1C102.4,30.9,101.5,31.2,100.4,31.2z"></path> <g> <defs> <rect id="SVGID_1_" x="0" y="0" width="239.5" height="92"></rect> </defs> <clipPath id="SVGID_2_"> <use xlink:href="#SVGID_1_" style="overflow:visible;"></use> </clipPath> <path class="st1" d="M25.2,61.2c0,0-2-7.2-8.4-7.2c-6.4,0-6.9-0.1-6.9-0.1V41.9H0v42.8h18.4c0,0,7.6-2.3,7.8-12.4 C26.4,62.4,25.2,61.2,25.2,61.2 M16.1,73.7c0,2.5-3,2.8-3,2.8h-3V61.8l4.2-0.1c1.3,0,2.1,2.7,2.1,2.7S16.1,71.1,16.1,73.7z"></path> </g> <rect x="29.3" y="42" class="st0" width="9.8" height="42.7"></rect> <path class="st0" d="M59.1,54.1c0,0,0,18.9,0,22.3c-1.5,0-3,0-3.8,0c-2.2,0-2.3-4.4-2.3-4.4l-0.1-17.9h-9.4c0,0,0,20.2,0,22.6 c0,3.4,4.3,8.4,8.6,8.4c0.4,0,16.4,0,16.4,0V54.1H59.1"></path> <path class="st2" d="M98.3,0.1L58.1,27.3l3,5.1L72.2,26l0.1,42.5c0,0.2,0,0.4,0,0.6c0,0.6,0,1.2,0,1.8V71l0,0c0.3,7.8,3,13.9,9.6,14 c5.7,0,16,0.1,16,0.1v-7.2h0l0.1-7.1c0-0.8,0.1-1.5,0.1-1.7c0-0.6,0-1.1,0-1.6l0.4-35.7c-3.4-0.8-5.9-3.8-5.9-9c0-4.2,2-14,5.9-22.6 V0.1"></path> <path class="st0" d="M84.1,76.4c-2.3,0-2-2.7-2-2.7l15.7,0.1c0,0,0.2-4.2,0.2-4.8c0.1-8.7-2.5-15.5-13-15.6 c-7.7-0.1-12.6,7-12.7,15.7c-0.1,8.7,2.5,15.8,9.6,15.8c5.7,0,16,0.1,16,0.1v-8.6C97.8,76.5,86.1,76.4,84.1,76.4 M85.2,62.1 c3.5,0,3.8,4.4,3.8,4.4l-7.1-0.1C81.9,66.4,81.6,62.1,85.2,62.1z"></path> <polyline class="st3" points="115.5,53.5 108.3,53.5 108.3,58.3 116.4,58.3 116.4,62 103.8,62 103.8,42 116,42 116,45.7 108.3,45.7 108.3,49.9 115.5,49.9 115.5,53.5 "></polyline> <path class="st3" d="M118.1,52.1c0-1.8-0.1-3.3-0.1-4.6h3.9l0.2,2h0.1c0.6-0.9,2-2.3,4.4-2.3c2.9,0,5.1,1.9,5.1,6.2v8.5h-4.5v-8 c0-1.9-0.6-3.1-2.3-3.1c-1.2,0-2,0.9-2.3,1.7c-0.1,0.3-0.2,0.7-0.2,1.1v8.3h-4.4V52.1"></path> <path class="st3" d="M137.6,56.2c0.1,1.9,2,2.8,4.1,2.8c1.5,0,2.8-0.2,4-0.6l0.6,3.1c-1.5,0.6-3.3,0.9-5.2,0.9 c-4.9,0-7.7-2.8-7.7-7.4c0-3.7,2.3-7.7,7.3-7.7c4.7,0,6.4,3.7,6.4,7.2c0,0.8-0.1,1.5-0.1,1.8H137.6 M142.9,53.1 c0-1.1-0.5-2.9-2.5-2.9c-1.9,0-2.7,1.7-2.8,2.9H142.9z"></path> <path class="st3" d="M148.5,52.2c0-2.1-0.1-3.5-0.1-4.7h3.8l0.1,2.6h0.1c0.7-2.1,2.5-3,3.9-3c0.4,0,0.6,0,0.9,0.1v4.2 c-0.3-0.1-0.7-0.1-1.2-0.1c-1.6,0-2.8,0.9-3,2.3c-0.1,0.3-0.1,0.6-0.1,1v7.3h-4.5V52.2"></path> <path class="st3" d="M172,47.6c-0.1,0.9-0.1,2.1-0.1,4.3v8.1c0,2.8-0.6,5.1-2.2,6.5c-1.6,1.4-3.7,1.8-5.8,1.8 c-1.9,0-3.9-0.4-5.2-1.1l0.9-3.4c0.9,0.5,2.5,1.1,4.2,1.1c2.1,0,3.7-1.2,3.7-3.8V60h-0.1c-0.9,1.2-2.2,1.9-3.9,1.9 c-3.5,0-6.1-2.9-6.1-7.1c0-4.6,3-7.6,6.5-7.6c2,0,3.2,0.9,3.9,2h0.1l0.1-1.7H172 M167.4,53.4c0-0.3,0-0.6-0.1-0.8 c-0.3-1.2-1.2-2-2.4-2c-1.6,0-2.9,1.5-2.9,4.1c0,2.2,1.1,3.8,2.9,3.8c1.1,0,2-0.8,2.3-1.8c0.1-0.3,0.1-0.8,0.1-1.2V53.4z"></path> <path class="st3" d="M177.6,47.6l2.1,7.1c0.2,0.9,0.5,1.9,0.7,2.7h0.1c0.2-0.8,0.4-1.9,0.6-2.7l1.7-7.1h4.7l-3.3,9.5 c-2,5.8-3.4,8.1-5,9.5c-1.5,1.4-3.2,1.8-4.2,2l-0.9-3.8c0.5-0.1,1.2-0.4,1.9-0.8c0.7-0.4,1.4-1.1,1.8-1.8c0.1-0.2,0.2-0.4,0.2-0.7 c0-0.1,0-0.4-0.2-0.7l-5.2-13.3H177.6"></path> <polyline class="st3" points="115.4,76.7 108.1,76.7 108.1,81.5 116.2,81.5 116.2,85.2 103.6,85.2 103.6,65 115.8,65 115.8,68.7 108.1,68.7 108.1,72.9 115.4,72.9 115.4,76.7 "></polyline> <path class="st3" d="M146.2,80.6c0,1.9,0.1,3.4,0.1,4.6h-3.9l-0.2-2h-0.1c-0.6,0.9-1.9,2.4-4.5,2.4c-2.9,0-5-1.8-5-6.3v-8.4h4.5v7.7 c0,2.1,0.7,3.4,2.2,3.4c1.2,0,1.9-0.9,2.2-1.6c0.1-0.3,0.1-0.6,0.1-1v-8.6h4.5V80.6"></path> <path class="st3" d="M152.7,66.8c0,1.2-0.9,2.2-2.4,2.2c-1.4,0-2.3-1-2.3-2.2c0-1.3,0.9-2.3,2.3-2.3 C151.7,64.6,152.6,65.5,152.7,66.8 M152.5,85.2h-4.4V70.8h4.4V85.2z"></path> <path class="st3" d="M154.3,75.7c0-1.9-0.1-3.5-0.1-4.8h3.9l0.2,2h0.1c1.1-1.5,2.7-2.3,4.8-2.3c3.1,0,5.9,2.7,5.9,7.3 c0,5.2-3.3,7.7-6.5,7.7c-1.7,0-3.1-0.7-3.7-1.6h-0.1v7.2h-4.4V75.7 M158.7,79c0,0.4,0,0.7,0.1,0.9c0.3,1.2,1.3,2.1,2.6,2.1 c1.9,0,3.1-1.6,3.1-4.1c0-2.3-1-4-3-4c-1.3,0-2.4,0.9-2.7,2.3c-0.1,0.2-0.1,0.5-0.1,0.8V79z"></path> <path class="st3" d="M170.8,75.4c0-1.8-0.1-3.3-0.1-4.6h3.7l0.2,1.9h0.1c0.6-0.9,1.9-2.3,4.3-2.3c1.8,0,3.3,0.9,3.9,2.4h0.1 c0.5-0.7,1.2-1.3,1.8-1.7c0.8-0.5,1.7-0.7,2.7-0.7c2.8,0,4.8,1.9,4.8,6.2v8.5h-4.3v-7.8c0-2.1-0.7-3.3-2.1-3.3c-1,0-1.8,0.7-2,1.6 c-0.1,0.3-0.2,0.8-0.2,1.1v8.4h-4.3v-8.1c0-1.8-0.6-3.1-2-3.1c-1.1,0-1.8,0.9-2.1,1.6c-0.1,0.4-0.2,0.8-0.2,1.1v8.4h-4.3V75.4"></path> <path class="st3" d="M198.1,79.5c0.1,1.9,2,2.7,4,2.7c1.5,0,2.8-0.2,4-0.6l0.6,3c-1.5,0.6-3.2,0.9-5.2,0.9c-4.9,0-7.6-2.8-7.6-7.3 c0-3.7,2.3-7.7,7.2-7.7c4.6,0,6.4,3.6,6.4,7.2c0,0.8-0.1,1.4-0.1,1.8H198.1 M203.4,76.4c0-1.1-0.5-2.9-2.5-2.9 c-1.9,0-2.6,1.7-2.8,2.9H203.4z"></path> <path class="st3" d="M209.2,75.4c0-1.8-0.1-3.3-0.1-4.6h3.9l0.2,2h0.1c0.6-0.9,2-2.3,4.4-2.3c2.9,0,5.1,1.9,5.1,6.2v8.5h-4.4v-8 c0-1.9-0.6-3.1-2.3-3.1c-1.2,0-2,0.9-2.3,1.7c-0.1,0.3-0.2,0.7-0.2,1.1v8.3h-4.4V75.4"></path> <path class="st3" d="M229.9,66.7v4.1h3.2v3.3h-3.2v5.2c0,1.7,0.4,2.5,1.8,2.5c0.6,0,1-0.1,1.3-0.1l0,3.4c-0.6,0.2-1.6,0.4-2.9,0.4 c-1.4,0-2.6-0.5-3.3-1.2c-0.8-0.9-1.2-2.2-1.2-4.3v-5.9h-1.9v-3.3h1.9v-3.1L229.9,66.7"></path> <g> <defs> <rect id="SVGID_3_" x="0" y="0" width="239.5" height="92"></rect> </defs> <clipPath id="SVGID_4_"> <use xlink:href="#SVGID_3_" style="overflow:visible;"></use> </clipPath> <path class="st4" d="M125,87.1l10.9,4.9l-6.3-5.1l2.2-1.2l-2.7-2.4c1.3-1.4,2.1-3.3,2.1-5.5c0-4.2-2.4-7.3-7-7.4 c-3.9,0-7,3.2-7,7.4c0,4.2,2.5,7.6,7,7.6c1,0,2-0.2,2.9-0.7l0.7,0.6L125,87.1 M124.2,83c-2,0-3.7-2.3-3.7-5.1 c0-2.8,1.6-5.1,3.7-5.1c2,0,3.6,2.3,3.6,5.1c0,1.3-0.4,2.6-1,3.5l-1.5-1.2l-2,1.2l1.5,1.4C124.4,82.9,124.4,83,124.2,83z"></path> </g> <g> <path class="st3" d="M238.2,72.4c0,1.1-0.9,2-2,2s-2-0.9-2-2s0.9-2,2-2C237.3,70.5,238.2,71.3,238.2,72.4z M234.7,72.4 c0,0.9,0.7,1.6,1.5,1.6c0.9,0,1.5-0.7,1.5-1.6c0-0.9-0.6-1.6-1.5-1.6C235.4,70.9,234.7,71.6,234.7,72.4z M235.9,73.5h-0.5v-2 c0.2,0,0.4-0.1,0.8-0.1c0.4,0,0.5,0.1,0.7,0.2c0.1,0.1,0.2,0.2,0.2,0.4c0,0.2-0.2,0.4-0.4,0.5v0c0.2,0.1,0.3,0.2,0.3,0.5 c0.1,0.3,0.1,0.4,0.1,0.5h-0.5c-0.1-0.1-0.1-0.2-0.2-0.5c0-0.2-0.2-0.3-0.4-0.3h-0.2V73.5z M235.9,72.3h0.2c0.3,0,0.5-0.1,0.5-0.3 c0-0.2-0.1-0.3-0.4-0.3c-0.1,0-0.2,0-0.3,0V72.3z"></path> </g> </svg>